<svg xmlns="http://www.w3.org/2000/svg" viewBox="0 0 526 206" width="526" height="206">
	<defs>
		<style type="text/css"><![CDATA[
			rect {
				fill: white;
				stroke: black;
				stroke-width: 1;
			}
			text {
				fill: black;
			}
			svg>path {
				stroke: black;
				stroke-width: 2;
				fill: none;
				marker-end: url(#arrow);
			}
		]]></style>
		<marker id="arrow" markerWidth="13" markerHeight="13" refX="8" refY="6" orient="auto">
			<path d="M0,2 L0,11 L8,6 L0,2" style="fill: black;" />
		</marker>
	</defs>
	
	<rect x="8" y="8" width="128" height="32"/>
	<text x="72" y="32" font-size="20" text-anchor="middle">Draft</text>
	<path d="M136,24 L200,24"/>
	<rect x="200" y="8" width="128" height="32"/>
	<text x="264" y="32" font-size="20" text-anchor="middle">Accepted</text>
	<path d="M328,24 L392,24"/>
	<rect x="392" y="8" width="128" height="32"/>
	<text x="456" y="32" font-size="20" text-anchor="middle">Final</text>
	<path d="M456,40 L456,80"/>
	<rect x="392" y="80" width="128" height="32"/>
	<text x="456" y="104" font-size="20" text-anchor="middle">Replaced</text>
	
	<path d="M120,40 L120,72 L200,72"/>
	<rect x="200" y="56" width="128" height="32"/>
	<text x="264" y="80" font-size="20" text-anchor="middle">Rejected</text>
	<path d="M328,32 L360,32 L360,72 L328,72" stroke-dasharray="4, 2"/>
	
	<path d="M88,40 L88,120 L200,120"/>
	<rect x="200" y="104" width="128" height="32"/>
	<text x="264" y="128" font-size="20" text-anchor="middle">Withdrawn</text>
	
	<path d="M24,40 L24,166"/>
	<rect x="8" y="166" width="128" height="32"/>
	<text x="72" y="190" font-size="20" text-anchor="middle">Deferred</text>
	<path d="M56,166 L56,40"/>
	
	<rect x="392" y="166" width="128" height="32"/>
	<text x="456" y="190" font-size="20" text-anchor="middle">Active</text>
</svg>
